<svg xmlns="http://www.w3.org/2000/svg" version="1.1" width="783.90237"
     height="852.9989" viewBox="0 0 783.90237 852.9989">
<defs>
<clipPath id="clip_0">
<path transform="matrix(1,0,0,1,77.90907,122.36279)" d="M1.5 1.5H84.5V82.5H1.5Z"/>
</clipPath>
<clipPath id="clip_1">
<path transform="matrix(1,0,0,1,245.40908,122.36279)" d="M2.049021 1.499996H125.499988V82.49999H2.049021Z"/>
</clipPath>
<clipPath id="clip_2">
<path transform="matrix(1,0,0,1,456.2315,219.51908)" d="M2.049021 1.499996H135.5V82.49999H2.049021Z"/>
</clipPath>
<clipPath id="clip_3">
<path transform="matrix(1,0,0,1,456.2315,478.48268)" d="M1.918302 1.499997H134.67755V62.499998H1.918302Z"/>
</clipPath>
<clipPath id="clip_4">
<path transform="matrix(1,0,0,1,456.2315,357.0913)" d="M1.901252 1.499997H134.67754V59.89134H1.901252Z"/>
</clipPath>
<clipPath id="clip_5">
<path transform="matrix(1,0,0,1,626.20059,478.48268)" d="M1.918302 1.499997H131.06537V62.499998H1.918302Z"/>
</clipPath>
<clipPath id="clip_6">
<path transform="matrix(1,0,0,1,405.88313,122.36279)" d="M1.892158 1.499997H135.49999V58.499998H1.892158Z"/>
</clipPath>
<clipPath id="clip_7">
<path transform="matrix(1,0,0,1,456.2315,592.00729)" d="M2.191921 1.499994H135.49999V109.97968H2.191921Z"/>
</clipPath>
<clipPath id="clip_8">
<path transform="matrix(1,0,0,1,455.9815,753.00698)" d="M1.944299 1.499996H136V66.47758H1.944299Z"/>
</clipPath>
<clipPath id="clip_9">
<path transform="matrix(1,0,0,1,245.40908,753.00698)" d="M1.944299 1.499996H125.49999V66.47758H1.944299Z"/>
</clipPath>
<clipPath id="clip_10">
<path transform="matrix(1,0,0,1,66.90908,744.50698)" d="M1.9899 1.499996H95.49998V82.47758H1.9899Z"/>
</clipPath>
<clipPath id="clip_11">
<path transform="matrix(1,0,0,1,573.40176,122.36279)" d="M1.892158 1.499997H135.49999V58.499998H1.892158Z"/>
</clipPath>
<clipPath id="clip_12">
<path transform="matrix(1,0,0,1,77.90907,122.36279)" d="M1.5 1.5H84.5V82.5H1.5Z"/>
</clipPath>
<clipPath id="clip_13">
<path transform="matrix(1,0,0,1,245.40908,122.36279)" d="M2.049021 1.499996H125.499988V82.49999H2.049021Z"/>
</clipPath>
<clipPath id="clip_14">
<path transform="matrix(1,0,0,1,456.2315,219.51908)" d="M2.049021 1.499996H135.5V82.49999H2.049021Z"/>
</clipPath>
<clipPath id="clip_15">
<path transform="matrix(1,0,0,1,456.2315,478.48268)" d="M1.918302 1.499997H134.67755V62.499998H1.918302Z"/>
</clipPath>
<clipPath id="clip_16">
<path transform="matrix(1,0,0,1,456.2315,357.0913)" d="M1.901252 1.499997H134.67754V59.89134H1.901252Z"/>
</clipPath>
<clipPath id="clip_17">
<path transform="matrix(1,0,0,1,626.20059,478.48268)" d="M1.918302 1.499997H131.06537V62.499998H1.918302Z"/>
</clipPath>
<clipPath id="clip_18">
<path transform="matrix(1,0,0,1,405.88313,122.36279)" d="M1.892158 1.499997H135.49999V58.499998H1.892158Z"/>
</clipPath>
<clipPath id="clip_19">
<path transform="matrix(1,0,0,1,456.2315,592.00729)" d="M2.191921 1.499994H135.49999V109.97968H2.191921Z"/>
</clipPath>
<clipPath id="clip_20">
<path transform="matrix(1,0,0,1,455.9815,753.00698)" d="M1.944299 1.499996H136V66.47758H1.944299Z"/>
</clipPath>
<clipPath id="clip_21">
<path transform="matrix(1,0,0,1,245.40908,753.00698)" d="M1.944299 1.499996H125.49999V66.47758H1.944299Z"/>
</clipPath>
<clipPath id="clip_22">
<path transform="matrix(1,0,0,1,66.90908,744.50698)" d="M1.9899 1.499996H95.49998V82.47758H1.9899Z"/>
</clipPath>
<clipPath id="clip_23">
<path transform="matrix(.75,0,0,.75,87.40907,42.362794)" d="M0 0H89.333339V89.333339H0Z"/>
</clipPath>
<clipPath id="clip_24">
<path transform="matrix(.75,0,0,.75,275.40907,42.362794)" d="M0 0H89.333339V89.333339H0Z"/>
</clipPath>
<clipPath id="clip_25">
<path transform="matrix(.75,0,0,.75,490.40907,42.362794)" d="M0 0H89.333339V89.333339H0Z"/>
</clipPath>
<clipPath id="clip_26">
<path transform="matrix(1,0,0,1,573.40176,122.36279)" d="M1.892158 1.499997H135.49999V58.499998H1.892158Z"/>
</clipPath>
<clipPath id="clip_27">
<path transform="matrix(1,0,0,1,77.90907,122.36279)" d="M1.5 1.5H84.5V82.5H1.5Z"/>
</clipPath>
<clipPath id="clip_28">
<path transform="matrix(1,0,0,1,245.40908,122.36279)" d="M2.049021 1.499996H125.499988V82.49999H2.049021Z"/>
</clipPath>
<clipPath id="clip_29">
<path transform="matrix(1,0,0,1,456.2315,219.51908)" d="M2.049021 1.499996H135.5V82.49999H2.049021Z"/>
</clipPath>
<clipPath id="clip_30">
<path transform="matrix(1,0,0,1,456.2315,478.48268)" d="M1.918302 1.499997H134.67755V62.499998H1.918302Z"/>
</clipPath>
<clipPath id="clip_31">
<path transform="matrix(1,0,0,1,456.2315,357.0913)" d="M1.901252 1.499997H134.67754V59.89134H1.901252Z"/>
</clipPath>
<clipPath id="clip_32">
<path transform="matrix(1,0,0,1,626.20059,478.48268)" d="M1.918302 1.499997H131.06537V62.499998H1.918302Z"/>
</clipPath>
<clipPath id="clip_33">
<path transform="matrix(1,0,0,1,405.88313,122.36279)" d="M1.892158 1.499997H135.49999V58.499998H1.892158Z"/>
</clipPath>
<clipPath id="clip_34">
<path transform="matrix(1,0,0,1,456.2315,592.00729)" d="M2.191921 1.499994H135.49999V109.97968H2.191921Z"/>
</clipPath>
<clipPath id="clip_35">
<path transform="matrix(1,0,0,1,455.9815,753.00698)" d="M1.944299 1.499996H136V66.47758H1.944299Z"/>
</clipPath>
<clipPath id="clip_36">
<path transform="matrix(1,0,0,1,245.40908,753.00698)" d="M1.944299 1.499996H125.49999V66.47758H1.944299Z"/>
</clipPath>
<clipPath id="clip_37">
<path transform="matrix(1,0,0,1,66.90908,744.50698)" d="M1.9899 1.499996H95.49998V82.47758H1.9899Z"/>
</clipPath>
<clipPath id="clip_38">
<path transform="matrix(1,0,0,1,573.40176,122.36279)" d="M1.892158 1.499997H135.49999V58.499998H1.892158Z"/>
</clipPath>
</defs>
<path d="M0 0H783.90237V852.9989H0Z" fill="#fafafa"/>
<g clip-path="url(#clip_0)">
</g>
<g clip-path="url(#clip_1)">
</g>
<g clip-path="url(#clip_2)">
</g>
<g clip-path="url(#clip_3)">
</g>
<g clip-path="url(#clip_4)">
</g>
<g clip-path="url(#clip_5)">
</g>
<g clip-path="url(#clip_6)">
</g>
<g clip-path="url(#clip_7)">
</g>
<g clip-path="url(#clip_8)">
</g>
<g clip-path="url(#clip_9)">
</g>
<g clip-path="url(#clip_10)">
</g>
<g clip-path="url(#clip_11)">
</g>
<path transform="matrix(1,0,0,1,77.90907,122.36279)" d="M0 0H86V84H0V0Z" fill="#ffffff"/>
<path transform="matrix(1,0,0,1,77.90907,122.36279)" stroke-width="3" stroke-linecap="butt" stroke-miterlimit="10" stroke-linejoin="miter" fill="none" stroke="#1f1f1f" d="M0 0H86V84H0V0Z"/>
<g clip-path="url(#clip_12)">
<text xml:space="preserve" transform="matrix(1 0 -0 1 80.90907 979.7325)" font-size="12" font-family="ProximaNova"><tspan y="-841.62869" x="12.90918 21.02118 27.633179 33.21318 36.74118 43.60518 53.301179 60.05718 64.01718">Customer </tspan></text>
<text xml:space="preserve" transform="matrix(1 0 -0 1 80.90907 979.7325)" font-size="12" font-family="ProximaNova"><tspan y="-826.777" x="11.839844 17.419844 20.119845 27.007845 33.619848 39.19985 42.29585 44.99585 51.60785 54.70385 58.23185 65.09585">signs in to </tspan></text>
<text xml:space="preserve" transform="matrix(1 0 -0 1 80.90907 979.7325)" font-size="12" font-family="ProximaNova"><tspan y="-811.9253" x="26.675782 30.203782 36.82778 43.583784 46.283784 50.243783">their </tspan></text>
<text xml:space="preserve" transform="matrix(1 0 -0 1 80.90907 979.7325)" font-size="12" font-family="ProximaNova"><tspan y="-797.0736" x="5.180664 11.504664 17.444664 23.384665 30.248665 36.860666 43.472665 47.000665 53.324666 59.936666 65.87666 71.75666">accountancy </tspan></text>
<text xml:space="preserve" transform="matrix(1 0 -0 1 80.90907 979.7325)" font-size="12" font-family="ProximaNova"><tspan y="-782.2219" x="17.40039 22.98039 29.84439 33.24039 36.76839 45.576395 51.900396 55.860395">software</tspan></text>
</g>
<path transform="matrix(1,0,0,1,245.40908,122.36279)" d="M124.07784-.000004H2.922208C1.308311-.000004 .000011 1.305843 .000011 2.916671V81.08334C.000011 82.694149 1.308311 83.99999 2.922208 83.99999H124.07784C125.69169 83.99999 126.99999 82.694149 126.99999 81.08334V2.916671C126.99999 1.305843 125.69169-.000004 124.07784-.000004Z" fill="#ffffff"/>
<path transform="matrix(1,0,0,1,245.40908,122.36279)" stroke-width="3" stroke-linecap="butt" stroke-miterlimit="10" stroke-linejoin="miter" fill="none" stroke="#1f1f1f" d="M124.07784-.000004H2.922208C1.308311-.000004 .000011 1.305843 .000011 2.916671V81.08334C.000011 82.694149 1.308311 83.99999 2.922208 83.99999H124.07784C125.69169 83.99999 126.99999 82.694149 126.99999 81.08334V2.916671C126.99999 1.305843 125.69169-.000004 124.07784-.000004Z"/>
<g clip-path="url(#clip_13)">
<path transform="matrix(1,0,0,1,247.4581,123.862789)" stroke-width="0" stroke-linecap="butt" stroke-miterlimit="10" stroke-linejoin="miter" fill="none" stroke="#000000" stroke-opacity="0" d="M0 0H123.450969V81H0V0Z"/>
<text xml:space="preserve" transform="matrix(1 0 -0 1 248.9581 994.7842)" font-size="12" font-family="ProximaNova"><tspan y="-841.62869" x="3.143453 11.255453 17.867453 23.447453 26.975453 33.839456 43.535455 50.291456 54.251455 57.347455 60.743455 67.60745 70.30745 73.00745 79.871448 88.67944 94.259449 97.355449 100.883449 107.50745 114.26344">Customer follows the </tspan></text>
<text xml:space="preserve" transform="matrix(1 0 -0 1 248.9581 994.7842)" font-size="12" font-family="ProximaNova"><tspan y="-826.777" x="2.873922 11.60861 19.358128 25.970128 29.498127 36.122129 39.21813 46.274129 49.034128 56.378129 59.47413 66.36213 70.32213 77.18613 83.12613 89.882129 95.46213 101.04213 104.13813 107.66613 114.53013">OAuth 2.0 process to </tspan></text>
<text xml:space="preserve" transform="matrix(1 0 -0 1 248.9581 994.7842)" font-size="12" font-family="ProximaNova"><tspan y="-811.9253" x="7.661031 14.54903 21.30503 24.83303 27.929032 34.253034 40.865034 43.961034 50.285036 56.225038 62.16504 68.921039 74.50104 80.08104 83.17704 86.70504 93.56904 99.46165 106.21765">get an access token</tspan></text>
</g>
<path transform="matrix(1,0,0,1,456.2315,219.51908)" d="M134.07784-.000004H2.922208C1.308311-.000004 .000011 1.305843 .000011 2.916671V81.08334C.000011 82.694149 1.308311 83.99999 2.922208 83.99999H134.07784C135.6917 83.99999 136.99999 82.694149 136.99999 81.08334V2.916671C136.99999 1.305843 135.6917-.000004 134.07784-.000004Z" fill="#ffffff"/>
<path transform="matrix(1,0,0,1,456.2315,219.51908)" stroke-width="3" stroke-linecap="butt" stroke-miterlimit="10" stroke-linejoin="miter" fill="none" stroke="#1f1f1f" d="M134.07784-.000004H2.922208C1.308311-.000004 .000011 1.305843 .000011 2.916671V81.08334C.000011 82.694149 1.308311 83.99999 2.922208 83.99999H134.07784C135.6917 83.99999 136.99999 82.694149 136.99999 81.08334V2.916671C136.99999 1.305843 135.6917-.000004 134.07784-.000004Z"/>
<g clip-path="url(#clip_14)">
<path transform="matrix(1,0,0,1,458.28053,221.01908)" stroke-width="0" stroke-linecap="butt" stroke-miterlimit="10" stroke-linejoin="miter" fill="none" stroke="#000000" stroke-opacity="0" d="M0 0H133.45098V81H0V0Z"/>
<text xml:space="preserve" transform="matrix(1 0 -0 1 459.78053 1076.8888)" font-size="12" font-family="ProximaNova"><tspan y="-841.62869" x="17.574118 25.323636 31.935635 35.463636 42.087636 48.843637 55.455636 58.983636 61.683637 67.623638 73.94763 77.47563 84.23163 89.81163 92.90763 96.43563 103.05963 109.81563">Authenticates the </tspan></text>
<text xml:space="preserve" transform="matrix(1 0 -0 1 459.78053 1076.8888)" font-size="12" font-family="ProximaNova"><tspan y="-826.777" x="16.850485 22.790486 29.402485 34.982488 38.510488 45.37449 55.070489 61.82649 65.78649 68.88249 77.69049 80.39049 83.91849 90.54249 93.63849 97.16649 103.79049 110.54649">customer with the </tspan></text>
<text xml:space="preserve" transform="matrix(1 0 -0 1 459.78053 1076.8888)" font-size="12" font-family="ProximaNova"><tspan y="-811.9253" x="21.324118 27.648118 33.58812 39.528123 46.284124 51.864126 57.444128 60.540128 64.06813 70.93213 76.82474 83.580738 90.19273 93.288738 100.188739 106.06873">access token by </tspan></text>
<text xml:space="preserve" transform="matrix(1 0 -0 1 459.78053 1076.8888)" font-size="12" font-family="ProximaNova"><tspan y="-797.0736" x="2.893453 8.4734539 15.229454 21.841454 28.741456 31.441456 38.053457 44.941457 48.037458 50.737459 54.265459 57.361459 60.889459 67.753459 70.84946 74.37746 81.00146 87.75746 90.85346 99.39746 109.10546 116.40146 124.51346">sending it to the HMRC </tspan></text>
<text xml:space="preserve" transform="matrix(1 0 -0 1 459.78053 1076.8888)" font-size="12" font-family="ProximaNova"><tspan y="-782.2219" x="7.592672 13.916672 20.528672 24.056672 30.680672 37.436674 44.04867 47.57667 50.276674 56.216676 62.540678 66.06868 68.76868 75.632678 82.244678 85.340679 90.92068 97.67668 101.63668 107.51668 110.216678 116.15668">authentication service</tspan></text>
</g>
<path transform="matrix(1,0,0,1,456.2315,478.48268)" d="M133.95114-.000003H2.226444C.996808-.000003 .000008 .994928 .000008 2.222226V61.777788C.000008 63.005067 .996808 63.999998 2.226444 63.999998H133.95114C135.18074 63.999998 136.17754 63.005067 136.17754 61.777788V2.222226C136.17754 .994928 135.18074-.000003 133.95114-.000003Z" fill="#ffffff"/>
<path transform="matrix(1,0,0,1,456.2315,478.48268)" stroke-width="3" stroke-linecap="butt" stroke-miterlimit="10" stroke-linejoin="miter" fill="none" stroke="#1f1f1f" d="M133.95114-.000003H2.226444C.996808-.000003 .000008 .994928 .000008 2.222226V61.777788C.000008 63.005067 .996808 63.999998 2.226444 63.999998H133.95114C135.18074 63.999998 136.17754 63.005067 136.17754 61.777788V2.222226C136.17754 .994928 135.18074-.000003 133.95114-.000003Z"/>
<g clip-path="url(#clip_15)">
<path transform="matrix(1,0,0,1,458.1498,479.98268)" stroke-width="0" stroke-linecap="butt" stroke-miterlimit="10" stroke-linejoin="miter" fill="none" stroke="#000000" stroke-opacity="0" d="M0 0H132.75925V61H0V0Z"/>
<text xml:space="preserve" transform="matrix(1 0 -0 1 458.6498 1333.4816)" font-size="12" font-family="ProximaNova"><tspan y="-841.62869" x="23.24095 31.352952 37.97695 44.732954 50.67295 56.770639 62.35064 65.44664 68.97464 75.59864 81.92264 85.45064 88.54664 92.07464 98.69864 105.454639">Checks that the </tspan></text>
<text xml:space="preserve" transform="matrix(1 0 -0 1 458.6498 1333.4816)" font-size="12" font-family="ProximaNova"><tspan y="-826.777" x="9.058332 14.998333 21.610333 27.190333 30.718333 37.582334 47.27833 54.034334 57.99433 61.090333 64.06633 66.76633 73.37833 80.27833 82.978328 88.85832 91.55832 98.45832 105.07032 111.39432 114.094318 119.67432">customer (individuals </tspan></text>
<text xml:space="preserve" transform="matrix(1 0 -0 1 458.6498 1333.4816)" font-size="12" font-family="ProximaNova"><tspan y="-811.9253" x="5.530988 12.394989 19.006989 21.70699 27.58699 30.56299 33.65899 40.28299 46.60699 52.186994 55.282995 61.606996 64.702999 70.643 77.506999 84.118999 87.173 90.227 97.127 103.882999 110.494998 116.435 123.190998">only) has a confidence </tspan></text>
<text xml:space="preserve" transform="matrix(1 0 -0 1 458.6498 1333.4816)" font-size="12" font-family="ProximaNova"><tspan y="-797.0736" x="9.673566 12.373566 19.129567 25.009568 31.765568 34.46557 37.56157 44.425569 47.821569 50.91757 57.973569 65.053569 72.39757 75.49357 82.35757 86.317569 89.41357 95.737567 102.637569 109.501567 115.38156">level of 250 or above</tspan></text>
</g>
<path transform="matrix(1,0,0,1,456.2315,357.0913)" d="M134.04189-.000003H2.135693C.956178-.000003 .000008 .954375 .000008 2.131647V59.25971C.000008 60.436964 .956178 61.39134 2.135693 61.39134H134.04189C135.22138 61.39134 136.17754 60.436964 136.17754 59.25971V2.131647C136.17754 .954375 135.22138-.000003 134.04189-.000003Z" fill="#ffffff"/>
<path transform="matrix(1,0,0,1,456.2315,357.0913)" stroke-width="3" stroke-linecap="butt" stroke-miterlimit="10" stroke-linejoin="miter" fill="none" stroke="#1f1f1f" d="M134.04189-.000003H2.135693C.956178-.000003 .000008 .954375 .000008 2.131647V59.25971C.000008 60.436964 .956178 61.39134 2.135693 61.39134H134.04189C135.22138 61.39134 136.17754 60.436964 136.17754 59.25971V2.131647C136.17754 .954375 135.22138-.000003 134.04189-.000003Z"/>
<g clip-path="url(#clip_16)">
<path transform="matrix(1,0,0,1,458.13276,358.5913)" stroke-width="0" stroke-linecap="butt" stroke-miterlimit="10" stroke-linejoin="miter" fill="none" stroke="#000000" stroke-opacity="0" d="M0 0H132.77629V58.391344H0V0Z"/>
<text xml:space="preserve" transform="matrix(1 0 -0 1 458.63276 1218.2084)" font-size="12" font-family="ProximaNova"><tspan y="-841.62869" x="4.200646 12.312647 18.936648 25.692648 31.632649 37.730337 43.310338 46.406339 49.10634 52.50234 55.59834 59.12634 65.750339 72.50633 75.60233 81.542339 88.154338 93.73434 97.26234 104.126338 113.822338 120.57834 124.53834">Checks if the customer </tspan></text>
<text xml:space="preserve" transform="matrix(1 0 -0 1 458.63276 1218.2084)" font-size="12" font-family="ProximaNova"><tspan y="-826.777" x="10.681115 13.381115 18.961115 22.057116 28.381115 34.993116 38.089117 40.789117 47.401117 54.301118 57.001119 62.88112 65.581119 72.48112 79.09312 85.417118 88.11711 91.21311 98.07711 102.03711 105.13311 111.45711 118.06911">is an individual or an </tspan></text>
<text xml:space="preserve" transform="matrix(1 0 -0 1 458.63276 1218.2084)" font-size="12" font-family="ProximaNova"><tspan y="-811.9253" x="50.83834 57.162343 64.05034 70.806339 77.418338">agent</tspan></text>
</g>
<path transform="matrix(1,0,0,1,626.20059,478.48268)" d="M130.33896-.000003H2.226444C.996808-.000003 .000008 .994928 .000008 2.222226V61.777788C.000008 63.005067 .996808 63.999998 2.226444 63.999998H130.33896C131.56856 63.999998 132.56537 63.005067 132.56537 61.777788V2.222226C132.56537 .994928 131.56856-.000003 130.33896-.000003Z" fill="#ffffff"/>
<path transform="matrix(1,0,0,1,626.20059,478.48268)" stroke-width="3" stroke-linecap="butt" stroke-miterlimit="10" stroke-linejoin="miter" fill="none" stroke="#1f1f1f" d="M130.33896-.000003H2.226444C.996808-.000003 .000008 .994928 .000008 2.222226V61.777788C.000008 63.005067 .996808 63.999998 2.226444 63.999998H130.33896C131.56856 63.999998 132.56537 63.005067 132.56537 61.777788V2.222226C132.56537 .994928 131.56856-.000003 130.33896-.000003Z"/>
<g clip-path="url(#clip_17)">
<path transform="matrix(1,0,0,1,628.11886,479.98268)" stroke-width="0" stroke-linecap="butt" stroke-miterlimit="10" stroke-linejoin="miter" fill="none" stroke="#000000" stroke-opacity="0" d="M0 0H129.14707V61H0V0Z"/>
<text xml:space="preserve" transform="matrix(1 0 -0 1 628.61886 1340.904)" font-size="12" font-family="ProximaNova"><tspan y="-841.62869" x="4.020797 11.160938 17.48494 20.18494 22.884942 29.784943 36.108945 39.636945 46.392946 51.972948 55.068948 58.596948 65.22095 71.544948 75.072948 78.168949 81.696949 88.320949 95.07695 98.17295 104.78495 110.36495 117.12096 121.080959">Validates that the user </tspan></text>
<text xml:space="preserve" transform="matrix(1 0 -0 1 628.61886 1340.904)" font-size="12" font-family="ProximaNova"><tspan y="-826.777" x="16.665328 23.289328 29.613327 35.19333 38.28933 44.61333 51.22533 54.32133 60.645334 66.585338 70.113338 72.81333 78.69333 85.449329 88.54533 95.577327 102.33333 105.033329 108.42933">has an active Self </tspan></text>
<text xml:space="preserve" transform="matrix(1 0 -0 1 628.61886 1340.904)" font-size="12" font-family="ProximaNova"><tspan y="-811.9253" x="2.67607 10.572071 16.152071 21.73207 28.488072 34.068075 39.648077 49.344076 56.100076 62.712076 66.240077 69.336078 76.09207 82.70407 86.66407 93.52807 96.228069 98.92806 108.62406 115.380069 121.992069">Assessment enrollment</tspan></text>
</g>
<path transform="matrix(1,0,0,1,162.40908,156.3628)" stroke-width="3" stroke-linecap="butt" stroke-miterlimit="10" stroke-linejoin="miter" fill="none" stroke="#1f1f1f" d="M73.55 8.00001H1.5"/>
<path transform="matrix(1,0,0,1,162.40908,156.3628)" d="M69.812 .00001" fill="#1f1f1f"/>
<path transform="matrix(1,0,0,1,162.40908,156.3628)" d="M82.59646 7.30541C83.13392 7.61253 83.13392 8.38749 82.59646 8.69461L71.00891 15.31607C70.475589 15.62081 69.812 15.23573 69.812 14.62147L69.812007 1.378554C69.812007 .764296 70.475589 .379202 71.00891 .683958L82.59646 7.30541Z" fill="#1f1f1f"/>
<path transform="matrix(1,0,0,1,232.22107,156.3628)" stroke-width="0" stroke-linecap="butt" stroke-miterlimit="10" stroke-linejoin="miter" fill="none" stroke="#000000" stroke-opacity="0" d="M0 0H14.00002V16.00002H0V0Z"/>
<path transform="matrix(1,0,0,1,516.31307,302.0228)" stroke-width="3" stroke-linecap="butt" stroke-miterlimit="10" stroke-linejoin="miter" fill="none" stroke="#1f1f1f" d="M8.078314 45.620279 8.41599 1.5"/>
<path transform="matrix(1,0,0,1,516.31307,302.0228)" d="M16.106688 41.94361" fill="#1f1f1f"/>
<path transform="matrix(1,0,0,1,516.31307,302.0228)" d="M8.703658 54.671789C8.392434 55.206884 7.617497 55.20095 7.314499 54.661157L.781916 43.02327C.481267 42.48763 .871414 41.827009 1.485656 41.83171L14.728184 41.933065C15.342424 41.937765 15.722428 42.60428 15.413599 43.135255L8.703658 54.671789Z" fill="#1f1f1f"/>
<path transform="matrix(1,0,0,1,516.31307,343.84397)" stroke-width="0" stroke-linecap="butt" stroke-miterlimit="10" stroke-linejoin="miter" fill="none" stroke="#000000" stroke-opacity="0" d="M0 0H16.106698V14.122043H0V0Z"/>
<path transform="matrix(1,0,0,1,405.88313,122.36279)" d="M134.91274-.000003H2.087291C.934508-.000003 .000008 .932745 .000008 2.083336V57.916677C.000008 59.06725 .934508 59.999998 2.087291 59.999998H134.91274C136.06549 59.999998 136.99999 59.06725 136.99999 57.916677V2.083336C136.99999 .932745 136.06549-.000003 134.91274-.000003Z" fill="#ffffff"/>
<path transform="matrix(1,0,0,1,405.88313,122.36279)" stroke-width="3" stroke-linecap="butt" stroke-miterlimit="10" stroke-linejoin="miter" fill="none" stroke="#1f1f1f" d="M134.91274-.000003H2.087291C.934508-.000003 .000008 .932745 .000008 2.083336V57.916677C.000008 59.06725 .934508 59.999998 2.087291 59.999998H134.91274C136.06549 59.999998 136.99999 59.06725 136.99999 57.916677V2.083336C136.99999 .932745 136.06549-.000003 134.91274-.000003Z"/>
<g clip-path="url(#clip_18)">
<path transform="matrix(1,0,0,1,407.77528,123.86279)" stroke-width="0" stroke-linecap="butt" stroke-miterlimit="10" stroke-linejoin="miter" fill="none" stroke="#000000" stroke-opacity="0" d="M0 0H133.60784V57H0V0Z"/>
<text xml:space="preserve" transform="matrix(1 0 -0 1 408.27528 982.7842)" font-size="12" font-family="ProximaNova"><tspan y="-841.62869" x="19.247277 26.387417 32.71142 35.41142 38.11142 45.01142 51.335424 54.863424 61.619424 67.199428 70.295429 73.823429 80.447429 86.77142 90.29942 93.395427 96.92342 103.547428 110.30342">Validates that the </tspan></text>
<text xml:space="preserve" transform="matrix(1 0 -0 1 408.27528 982.7842)" font-size="12" font-family="ProximaNova"><tspan y="-826.777" x="17.81466 23.75466 30.36666 35.94666 39.47466 46.33866 56.03466 62.79066 66.75066 69.153247 74.733249 77.82925 86.22925 93.06925 100.36525 103.46125 106.16125 111.74125">customer&#x2019;s UTR is </tspan></text>
<text xml:space="preserve" transform="matrix(1 0 -0 1 408.27528 982.7842)" font-size="12" font-family="ProximaNova"><tspan y="-811.9253" x="47.841028 53.78103 60.645029 64.60503 68.565029 75.32103 81.26103">correct</tspan></text>
</g>
<path transform="matrix(1,0,0,1,456.2315,592.00729)" d="M133.31726-.000006H3.682804C1.64884-.000006 .000014 1.64573 .000014 3.675826V107.80389C.000014 109.833957 1.64884 111.47969 3.682804 111.47969H133.31726C135.35117 111.47969 136.99999 109.833957 136.99999 107.80389V3.675826C136.99999 1.64573 135.35117-.000006 133.31726-.000006Z" fill="#ffffff"/>
<path transform="matrix(1,0,0,1,456.2315,592.00729)" stroke-width="3" stroke-linecap="butt" stroke-miterlimit="10" stroke-linejoin="miter" fill="none" stroke="#1f1f1f" d="M133.31726-.000006H3.682804C1.64884-.000006 .000014 1.64573 .000014 3.675826V107.80389C.000014 109.833957 1.64884 111.47969 3.682804 111.47969H133.31726C135.35117 111.47969 136.99999 109.833957 136.99999 107.80389V3.675826C136.99999 1.64573 135.35117-.000006 133.31726-.000006Z"/>
<g clip-path="url(#clip_19)">
<path transform="matrix(1,0,0,1,458.42344,593.50729)" stroke-width="0" stroke-linecap="butt" stroke-miterlimit="10" stroke-linejoin="miter" fill="none" stroke="#000000" stroke-opacity="0" d="M0 0H133.30806V108.47969H0V0Z"/>
<text xml:space="preserve" transform="matrix(1 0 -0 1 460.92344 1463.1168)" font-size="12" font-family="ProximaNova"><tspan y="-841.62869" x="26.703837 33.642416 40.398416 43.926416 47.886415 50.586416 57.342416 63.222417 69.97842 75.55842 78.65442 85.68642 92.44241 95.14241 98.538417">Retrieves Self </tspan></text>
<text xml:space="preserve" transform="matrix(1 0 -0 1 460.92344 1463.1168)" font-size="12" font-family="ProximaNova"><tspan y="-826.777" x="-.017842 7.878159 13.458159 19.03816 25.79416 31.37416 36.954164 46.65016 53.406164 60.01816 63.54616 66.64216 73.54216 79.86616 83.39416 89.718158 92.814159 99.71416 106.038158 111.61816 118.37416 125.27416">Assessment data based </tspan></text>
<text xml:space="preserve" transform="matrix(1 0 -0 1 460.92344 1463.1168)" font-size="12" font-family="ProximaNova"><tspan y="-811.9253" x="8.30247 15.166471 21.778471 24.874472 28.402472 35.026475 41.782476 44.878477 53.278478 60.118478 67.414478 70.510478 76.83447 83.44647 90.34647 93.442478 100.342479 106.66647 110.19447 116.95047">on the UTR and date </tspan></text>
<text xml:space="preserve" transform="matrix(1 0 -0 1 460.92344 1463.1168)" font-size="12" font-family="ProximaNova"><tspan y="-797.0736" x="19.323954 26.211955 32.535955 36.495954 42.819955 52.515954 59.271955 62.799955 69.555957 73.51595 76.61195 79.31195 85.92395 89.01995 92.54795 99.17195 105.92795">parameter in the </tspan></text>
<text xml:space="preserve" transform="matrix(1 0 -0 1 460.92344 1463.1168)" font-size="12" font-family="ProximaNova"><tspan y="-782.2219" x="44.12083 48.08083 54.83683 61.72483 68.33683 75.092838 80.67284">request</tspan></text>
</g>
<path transform="matrix(1,0,0,1,455.9815,753.00698)" d="M135.13523-.000004H2.364817C1.05876-.000004 .000009 1.056763 .000009 2.360336V65.61726C.000009 66.920818 1.05876 67.97758 2.364817 67.97758H135.13523C136.44124 67.97758 137.49999 66.920818 137.49999 65.61726V2.360336C137.49999 1.056763 136.44124-.000004 135.13523-.000004Z" fill="#ffffff"/>
<path transform="matrix(1,0,0,1,455.9815,753.00698)" stroke-width="3" stroke-linecap="butt" stroke-miterlimit="10" stroke-linejoin="miter" fill="none" stroke="#1f1f1f" d="M135.13523-.000004H2.364817C1.05876-.000004 .000009 1.056763 .000009 2.360336V65.61726C.000009 66.920818 1.05876 67.97758 2.364817 67.97758H135.13523C136.44124 67.97758 137.49999 66.920818 137.49999 65.61726V2.360336C137.49999 1.056763 136.44124-.000004 135.13523-.000004Z"/>
<g clip-path="url(#clip_20)">
<path transform="matrix(1,0,0,1,457.9258,754.50698)" stroke-width="0" stroke-linecap="butt" stroke-miterlimit="10" stroke-linejoin="miter" fill="none" stroke="#000000" stroke-opacity="0" d="M0 0H134.0557V64.977588H0V0Z"/>
<text xml:space="preserve" transform="matrix(1 0 -0 1 459.4258 1609.8914)" font-size="12" font-family="ProximaNova"><tspan y="-841.62869" x="15.813979 22.84598 29.60198 36.21398 43.113985 48.693986 51.789987 58.689989 65.013988 68.541988 74.86598 77.96198 81.35799 88.221988 92.181987 95.277988 98.805988 105.429988 112.18599">Sends data for the </tspan></text>
<text xml:space="preserve" transform="matrix(1 0 -0 1 459.4258 1609.8914)" font-size="12" font-family="ProximaNova"><tspan y="-826.777" x="12.849135 16.809136 23.565136 30.453137 37.065137 43.821138 49.40114 52.92914 59.68514 66.58514 69.68114 78.08114 84.92114 92.21714 95.31314 101.63714 108.24914 115.14914">requested UTR and </tspan></text>
<text xml:space="preserve" transform="matrix(1 0 -0 1 459.4258 1609.8914)" font-size="12" font-family="ProximaNova"><tspan y="-811.9253" x="18.679213 25.579213 31.903214 35.431215 42.187215 45.283216 49.243215 55.567216 62.179216 69.067218 75.82321 78.91921 82.44721 89.31121 92.40721 95.93521 102.55921 109.315219">date range to the </tspan></text>
<text xml:space="preserve" transform="matrix(1 0 -0 1 459.4258 1609.8914)" font-size="12" font-family="ProximaNova"><tspan y="-797.0736" x="19.440932 25.020932 31.884932 35.280935 38.808935 47.616937 53.940938 57.900938 64.65694 67.75294 74.64094 78.60094 85.464939 91.34493 94.04493 100.94493 107.70093">software provider</tspan></text>
</g>
<path transform="matrix(1,0,0,1,245.40908,753.00698)" d="M124.63522-.000004H2.364817C1.05876-.000004 .000009 1.056763 .000009 2.360336V65.61726C.000009 66.920818 1.05876 67.97758 2.364817 67.97758H124.63522C125.94124 67.97758 126.99999 66.920818 126.99999 65.61726V2.360336C126.99999 1.056763 125.94124-.000004 124.63522-.000004Z" fill="#ffffff"/>
<path transform="matrix(1,0,0,1,245.40908,753.00698)" stroke-width="3" stroke-linecap="butt" stroke-miterlimit="10" stroke-linejoin="miter" fill="none" stroke="#1f1f1f" d="M124.63522-.000004H2.364817C1.05876-.000004 .000009 1.056763 .000009 2.360336V65.61726C.000009 66.920818 1.05876 67.97758 2.364817 67.97758H124.63522C125.94124 67.97758 126.99999 66.920818 126.99999 65.61726V2.360336C126.99999 1.056763 125.94124-.000004 124.63522-.000004Z"/>
<g clip-path="url(#clip_21)">
<path transform="matrix(1,0,0,1,247.35338,754.50698)" stroke-width="0" stroke-linecap="butt" stroke-miterlimit="10" stroke-linejoin="miter" fill="none" stroke="#000000" stroke-opacity="0" d="M0 0H123.555698V64.977588H0V0Z"/>
<text xml:space="preserve" transform="matrix(1 0 -0 1 248.85338 1617.4171)" font-size="12" font-family="ProximaNova"><tspan y="-841.62869" x="10.543471 17.48205 24.23805 30.178051 36.93405 39.634054 45.514055 52.270055 57.850057 60.946058 67.846057 74.17005 77.69805 84.02205 87.11805 93.44205 100.05405 106.95405">Receives data and </tspan></text>
<text xml:space="preserve" transform="matrix(1 0 -0 1 248.85338 1617.4171)" font-size="12" font-family="ProximaNova"><tspan y="-826.777" x="3.61476 10.514761 13.214761 18.794762 25.682763 28.382763 34.706766 40.586767 46.166769 49.262769 51.96277 55.49077 58.58677 61.28677 67.89877 70.994777 74.52277 81.146778 87.90277 90.99877 97.61077 103.19077 109.94678 113.90678">displays it in the user </tspan></text>
<text xml:space="preserve" transform="matrix(1 0 -0 1 248.85338 1617.4171)" font-size="12" font-family="ProximaNova"><tspan y="-811.9253" x="37.303239 40.00324 46.61524 50.143239 56.89924 60.859239 64.25524 70.57924 76.51924">interface</tspan></text>
</g>
<path transform="matrix(1,0,0,1,66.90908,744.50698)" d="M94.3925-.000004H2.607532C1.167427-.000004 .00001 1.165225 .00001 2.602592V81.37501C.00001 82.812358 1.167427 83.97758 2.607532 83.97758H94.3925C95.832569 83.97758 96.999988 82.812358 96.999988 81.37501V2.602592C96.999988 1.165225 95.832569-.000004 94.3925-.000004Z" fill="#ffffff"/>
<path transform="matrix(1,0,0,1,66.90908,744.50698)" stroke-width="3" stroke-linecap="butt" stroke-miterlimit="10" stroke-linejoin="miter" fill="none" stroke="#1f1f1f" d="M94.3925-.000004H2.607532C1.167427-.000004 .00001 1.165225 .00001 2.602592V81.37501C.00001 82.812358 1.167427 83.97758 2.607532 83.97758H94.3925C95.832569 83.97758 96.999988 82.812358 96.999988 81.37501V2.602592C96.999988 1.165225 95.832569-.000004 94.3925-.000004Z"/>
<g clip-path="url(#clip_22)">
<path transform="matrix(1,0,0,1,68.89898,746.00698)" stroke-width="0" stroke-linecap="butt" stroke-miterlimit="10" stroke-linejoin="miter" fill="none" stroke="#000000" stroke-opacity="0" d="M0 0H93.51008V80.977588H0V0Z"/>
<text xml:space="preserve" transform="matrix(1 0 -0 1 70.39898 1600.5059)" font-size="12" font-family="ProximaNova"><tspan y="-841.62869" x="23.1359 31.031903 33.731904 40.487905 49.295907 54.875909 57.97191 64.295909">Views a </tspan></text>
<text xml:space="preserve" transform="matrix(1 0 -0 1 70.39898 1600.5059)" font-size="12" font-family="ProximaNova"><tspan y="-826.777" x="7.538244 14.438244 18.398243 25.154244 31.478245 37.370855 44.270856 51.134859 59.942857 66.554859 69.650859 76.514858 79.91086">breakdown of </tspan></text>
<text xml:space="preserve" transform="matrix(1 0 -0 1 70.39898 1600.5059)" font-size="12" font-family="ProximaNova"><tspan y="-811.9253" x="23.771643 27.299643 33.923646 40.679647 43.775648 50.807649 57.56365 60.26365 63.65965">the Self </tspan></text>
<text xml:space="preserve" transform="matrix(1 0 -0 1 70.39898 1600.5059)" font-size="12" font-family="ProximaNova"><tspan y="-797.0736" x="11.935705 19.831707 25.411707 30.991707 37.747709 43.32771 48.90771 58.60371 65.35971 71.97171 75.49971">Assessment </tspan></text>
<text xml:space="preserve" transform="matrix(1 0 -0 1 70.39898 1600.5059)" font-size="12" font-family="ProximaNova"><tspan y="-782.2219" x="24.35465 30.67865 36.618654 42.558656 49.422655 56.034654 62.646654">account</tspan></text>
</g>
<path transform="matrix(1,0,0,1,370.90907,779.0028)" stroke-width="3" stroke-linecap="butt" stroke-miterlimit="10" stroke-linejoin="miter" fill="none" stroke="#1f1f1f" d="M10.95 8.00001H85.07"/>
<path transform="matrix(1,0,0,1,370.90907,779.0028)" d="M14.688 16.00001" fill="#1f1f1f"/>
<path transform="matrix(1,0,0,1,370.90907,779.0028)" d="M1.90354 8.69461C1.36608 8.38749 1.36608 7.61253 1.90354 7.30541L13.49109 .68395C14.024414 .37921 14.688 .76429 14.688 1.37855L14.687999 14.621466C14.687999 15.235724 14.024414 15.620818 13.491088 15.316062L1.90354 8.69461Z" fill="#1f1f1f"/>
<path transform="matrix(1,0,0,1,371.59706,779.0028)" stroke-width="0" stroke-linecap="butt" stroke-miterlimit="10" stroke-linejoin="miter" fill="none" stroke="#000000" stroke-opacity="0" d="M0 0H14.00002V16.00002H0V0Z"/>
<path transform="matrix(1,0,0,1,162.40908,778.4979)" stroke-width="3" stroke-linecap="butt" stroke-miterlimit="10" stroke-linejoin="miter" fill="none" stroke="#1f1f1f" d="M10.949822 8.062815 83 8.504841"/>
<path transform="matrix(1,0,0,1,162.40908,778.4979)" d="M14.638673 16.085597" fill="#1f1f1f"/>
<path transform="matrix(1,0,0,1,162.40908,778.4979)" d="M1.899271 8.701904C1.363705 8.391492 1.36846 7.616547 1.907794 7.31273L13.535747 .762482C14.070931 .46102 14.732142 .850164 14.728373 1.464412L14.647129 14.707079C14.643361 15.321325 13.977426 15.702341 13.445979 15.394319L1.899271 8.701904Z" fill="#1f1f1f"/>
<path transform="matrix(1,0,0,1,163.048,778.4979)" stroke-width="0" stroke-linecap="butt" stroke-miterlimit="10" stroke-linejoin="miter" fill="none" stroke="#000000" stroke-opacity="0" d="M0 0H14.097894V16.085608H0V0Z"/>
<g clip-path="url(#clip_23)">
<path transform="matrix(.6699998,0,0,.6699998,87.40907,42.362794)" d="M75.672 46.141C69.8204 53.6762 60.77 58.633 50.5 58.633 40.105 58.633 30.949 53.5666 25.105 45.867 17.2378 56.363 12.246 70.101 12.246 80.168 12.246 91.125 29.148 100 50.004 100 70.856 100 87.758 91.125 87.758 80.168 87.7541 69.266 83.09 56.168 75.672 46.141Z" fill="#1f1f1f"/>
<path transform="matrix(.6699998,0,0,.6699998,87.40907,42.362794)" d="M77.145 26.652C77.145 41.371 65.223 53.297 50.504 53.297 35.785 53.297 23.859 41.371 23.859 26.652 23.859 11.929 35.785 0 50.504 0 65.227 0 77.145 11.93 77.145 26.652Z" fill="#1f1f1f"/>
</g>
<path transform="matrix(1,0,0,1,21.547205,22.682885)" stroke-width="0" stroke-linecap="butt" stroke-miterlimit="10" stroke-linejoin="miter" fill="none" stroke="#000000" stroke-opacity="0" d="M0 0H198.72374V17.560294H0V0Z"/>
<text xml:space="preserve" transform="matrix(1 0 -0 1 21.547205 875.68179)" font-size="14" font-family="ProximaNova" font-weight="bold"><tspan y="-839.73367" x="68.43951 78.05751 86.16351 92.841518 97.57352 105.60952 117.53752 125.279529">Customer</tspan></text>
<g clip-path="url(#clip_24)">
<path transform="matrix(.6699998,0,0,.6699998,275.40907,42.362794)" d="M73.207 14.637H92.223C93.6371 14.637 94.93 15.21903 95.8636 16.1487 96.79719 17.08229 97.3753 18.3714 97.3753 19.7893V73.6333C97.3753 75.0474 96.79327 76.3403 95.8636 77.2739 94.93001 78.20749 93.6409 78.7856 92.223 78.7856H57.551C57.77756 80.4262 58.22678 82.0239 58.8791 83.5239 58.98848 83.7739 59.10176 84.01999 59.22285 84.26609H62.77365C64.51195 84.26609 66.09005 84.97703 67.23845 86.12159 68.38295 87.26609 69.09395 88.84819 69.09395 90.58639 69.09395 92.32469 68.38301 93.90669 67.23845 95.05119 66.09389 96.19569 64.51185 96.90669 62.77365 96.90669H37.22265C35.48435 96.90669 33.90625 96.19575 32.75785 95.05119 31.61335 93.90669 30.90235 92.32459 30.90235 90.58639 30.90235 88.84809 31.61329 87.26609 32.75785 86.12159 33.90235 84.97709 35.48445 84.26609 37.22265 84.26609H40.77345C40.89454 84.0239 41.00782 83.7739 41.1172 83.5239 41.76954 82.0161 42.2227 80.4262 42.4453 78.7856H7.7733C6.3592 78.7856 5.0663 78.20357 4.1327 77.2739 3.19911 76.34031 2.621 75.0512 2.621 73.6333V19.7893C2.621 18.3752 3.20303 17.0784 4.1327 16.1487 5.06629 15.21511 6.3554 14.637 7.7733 14.637H26.7893L33.8987 7.5276C34.58229 6.84401 35.6917 6.84401 36.3714 7.5276L39.5862 10.7424C40.11745 10.46896 40.6526 10.21896 41.1956 10.00021 41.73076 9.77755 42.2854 9.57443 42.8558 9.38693V4.84003C42.8558 3.87519 43.63705 3.09003 44.6058 3.09003H55.3868C56.35164 3.09003 57.1368 3.87128 57.1368 4.84003V9.38693C57.70321 9.57443 58.2579 9.77755 58.797 10.00021 59.33997 10.22677 59.8751 10.47287 60.4064 10.7424L63.6212 7.5276C64.30479 6.84401 65.4142 6.84401 66.0939 7.5276L73.2033 14.637ZM48.75 73.586C47.78516 73.586 47 72.80475 47 71.836 47 70.87116 47.78125 70.086 48.75 70.086H51.25C52.21484 70.086 53 70.86725 53 71.836 53 72.80084 52.21875 73.586 51.25 73.586ZM6.121 69.1876C20.66 66.7931 35.336 65.5938 50 65.5938 64.664 65.5938 79.336 66.793 93.875 69.1876V19.7896C93.875 19.33648 93.6875 18.92241 93.39062 18.6216 93.08984 18.32082 92.67968 18.13722 92.22262 18.13722H73.20662L70.50742 20.83642C70.78086 21.36376 71.02695 21.90282 71.24961 22.44582 71.47227 22.98098 71.6793 23.53962 71.86289 24.10602H76.40979C77.37463 24.10602 78.15979 24.88727 78.15979 25.85602V36.63702C78.15979 37.60186 77.37854 38.38702 76.40979 38.38702H71.86679C71.67929 38.95343 71.47616 39.50812 71.25351 40.04722 71.02695 40.59019 70.78085 41.12532 70.51132 41.65662L73.72612 44.87142C74.40971 45.55501 74.40971 46.66442 73.72612 47.34412L66.10112 54.96912C65.41753 55.65271 64.30812 55.65271 63.62842 54.96912L60.41362 51.75432C59.88237 52.02776 59.34722 52.27776 58.80422 52.49651 58.26906 52.71917 57.71442 52.92229 57.14402 53.10979V57.65669C57.14402 58.62153 56.36277 59.40669 55.39402 59.40669H44.61302C43.64818 59.40669 42.86302 58.62544 42.86302 57.65669V53.11369C42.29661 52.92619 41.74192 52.72307 41.20282 52.50041 40.65985 52.27385 40.12472 52.02775 39.59342 51.75822L36.37862 54.97302C35.69503 55.65661 34.58562 55.65661 33.90592 54.97302L26.28092 47.34802C25.59733 46.66443 25.59733 45.55502 26.28092 44.87532L29.49572 41.66052C29.22228 41.12927 28.97228 40.59412 28.75353 40.05112 28.53087 39.51596 28.32775 38.96132 28.14025 38.39092H23.59335C22.62851 38.39092 21.84335 37.60967 21.84335 36.64092V25.85992C21.84335 24.89508 22.6246 24.10992 23.59335 24.10992H28.13635C28.32385 23.54351 28.52697 22.98882 28.74963 22.44972 28.97619 21.90675 29.22229 21.37162 29.49182 20.84032L26.79262 18.14112H7.77662C7.3235 18.14112 6.90943 18.32862 6.60862 18.6255 6.30784 18.92628 6.12424 19.34034 6.12424 19.7935V69.1915ZM93.875 72.7306C79.359 70.3087 64.684 69.0978 50 69.0978 35.316 69.0978 20.641 70.3087 6.121 72.7306V73.63294C6.121 74.08607 6.3085 74.50013 6.60538 74.80094 6.90616 75.10172 7.31632 75.28532 7.77338 75.28532H92.22238C92.6755 75.28532 93.08957 75.09782 93.39038 74.80094 93.69116 74.50016 93.87476 74.09 93.87476 73.63294ZM49.996 16.2536C54.1366 16.2536 57.8827 17.9333 60.594 20.6442 63.3049 23.3551 64.9846 27.1051 64.9846 31.2422 64.9846 35.3828 63.3049 39.1289 60.594 41.8402 57.8831 44.5511 54.1331 46.2308 49.996 46.2308 45.8554 46.2308 42.1093 44.5511 39.398 41.8402 36.6871 39.1293 35.0074 35.3793 35.0074 31.2422 35.0074 27.1016 36.6871 23.3555 39.398 20.6442 42.1089 17.9333 45.8589 16.2536 49.996 16.2536ZM58.1249 23.1208C56.0468 21.0427 53.1718 19.7536 49.996 19.7536 46.8202 19.7536 43.9452 21.0388 41.8671 23.1208 39.789 25.1989 38.4999 28.0739 38.4999 31.2497 38.4999 34.4255 39.7851 37.3005 41.8671 39.3786 43.9452 41.4567 46.8202 42.7458 49.996 42.7458 53.1718 42.7458 56.0468 41.4606 58.1249 39.3786 60.203 37.3005 61.4921 34.4255 61.4921 31.2497 61.4921 28.0739 60.2069 25.1989 58.1249 23.1208ZM57.46084 13.2224C56.6835 12.89818 55.89054 12.62865 55.09754 12.41381 54.26942 12.27319 53.64444 11.55444 53.64444 10.68721V6.58951H46.36324V10.68721C46.355428 11.46455 45.8359 12.17161 45.05074 12.37471 44.20699 12.59346 43.37104 12.87862 42.54684 13.22237 41.74996 13.55049 40.99604 13.92549 40.28124 14.33567 39.60155 14.81223 38.65234 14.74583 38.04684 14.13645L35.14454 11.23415 29.99224 16.38645 32.89454 19.28875C33.43751 19.83953 33.57423 20.70675 33.16016 21.40595 32.72266 22.14814 32.32422 22.94895 31.97656 23.78875 31.65234 24.56609 31.38281 25.35905 31.16797 26.15205 31.02735 26.98017 30.30859 27.60515 29.44137 27.60515H25.34757V34.88635H29.44527C30.22261 34.89416 30.92967 35.41369 31.13277 36.19885 31.35152 37.0426 31.63668 37.87855 31.98043 38.70275 32.30855 39.49963 32.68355 40.25355 33.09373 40.96835 33.57029 41.64804 33.50389 42.59725 32.89451 43.20275L29.99221 46.10505 35.14451 51.25735 38.04681 48.35505C38.59759 47.81208 39.46481 47.67536 40.16401 48.08943 40.9062 48.52693 41.70701 48.92537 42.54681 49.27303 43.32806 49.59725 44.11711 49.86678 44.91011 50.08162 45.73823 50.22224 46.36321 50.941 46.36321 51.80822V55.90202H53.64441V51.80432C53.65222 51.02698 54.17175 50.31992 54.95691 50.11682 55.80066 49.89807 56.63661 49.61291 57.46081 49.26916 58.25768 48.94104 59.01161 48.56604 59.72641 48.15586 60.4061 47.6793 61.35531 47.7457 61.96081 48.35508L64.86311 51.25738 70.01541 46.10508 67.11311 43.20278C66.57014 42.652 66.43342 41.78478 66.84749 41.08558 67.28499 40.34339 67.68343 39.54258 68.03109 38.70278 68.35531 37.92153 68.62484 37.13248 68.83968 36.33948 68.9803 35.51136 69.69906 34.88638 70.56628 34.88638H74.66008V27.60518H70.56628C69.78894 27.597367 69.08188 27.07784 68.87878 26.29268 68.65612 25.44893 68.37097 24.60908 68.03112 23.78488 67.703 22.988 67.328 22.23408 66.92172 21.52318 66.44516 20.84349 66.51156 19.89428 67.12094 19.28878L70.02324 16.38648 64.87094 11.23418 61.96864 14.13648C61.41786 14.67945 60.55064 14.81617 59.85144 14.4021 59.10925 13.9646 58.30454 13.56616 57.46864 13.2185ZM61.48034 87.7654C61.82409 88.18728 62.19128 88.59352 62.57414 88.9842 62.94523 89.30451 63.18352 89.78108 63.18352 90.3123 63.18352 91.27714 62.40227 92.0623 61.43352 92.0623H38.56252C38.11721 92.05449 37.66408 91.88652 37.32812 91.54277 36.64843 90.85918 36.64843 89.75367 37.335935 89.07797 37.753904 88.66 38.152345 88.2225 38.523435 87.76937H37.226533C36.453096 87.76937 35.746034 88.08578 35.234334 88.59749 34.722616 89.10921 34.40621 89.81629 34.40621 90.58969 34.40621 91.36313 34.722623 92.07019 35.234334 92.58189 35.746046 93.09359 36.453134 93.41001 37.226533 93.41001H62.777536C63.550973 93.41001 64.25803 93.0936 64.76973 92.58189 65.28143 92.07018 65.597858 91.36309 65.597858 90.58969 65.597858 89.81625 65.28144 89.10919 64.76973 88.59749 64.25801 88.08577 63.550935 87.76937 62.777536 87.76937H61.48453ZM56.72644 86.99587C56.667848 86.909938 56.62097 86.82399 56.578 86.73025 56.24988 86.14041 55.94909 85.53495 55.68347 84.91385 54.83972 82.97245 54.28117 80.90605 54.03507 78.77715H45.96087C45.71868 80.90605 45.15618 82.97245 44.31247 84.91385 44.04294 85.53104 43.74606 86.13655 43.41794 86.73025 43.37497 86.824 43.328096 86.90994 43.2695 86.99587 42.96481 87.53103 42.63669 88.05057 42.28512 88.55837H57.71112C57.35956 88.05056 57.03143 87.53107 56.72674 86.99587Z" fill="#1f1f1f"/>
</g>
<path transform="matrix(1,0,0,1,239.2328,24.802502)" stroke-width="0" stroke-linecap="butt" stroke-miterlimit="10" stroke-linejoin="miter" fill="none" stroke="#000000" stroke-opacity="0" d="M0 0H198.72374V17.560294H0V0Z"/>
<text xml:space="preserve" transform="matrix(1 0 -0 1 239.2328 877.8014)" font-size="14" font-family="ProximaNova" font-weight="bold"><tspan y="-839.73367" x="0 3.584 7.168 10.752001 18.970002 24.010003 32.214006 35.798006 44.25373 51.855733 56.895734 61.62773 68.80973 72.39373 80.79373 88.829738 93.40774 98.13974 108.90574 116.50774 121.54774">   3rd Party Software</tspan></text>
<g clip-path="url(#clip_25)">
<path transform="matrix(.6699998,0,0,.6699998,490.40907,42.362794)" d="M50 0C22.398 0 0 22.398 0 50 0 77.602 22.398 100 50 100 77.602 100 100 77.602 100 50 100 22.398 77.602 0 50 0ZM50 96.301C24.5 96.301 3.699 75.5 3.699 50 3.699 24.5 24.5 3.699 50 3.699 75.5 3.699 96.301 24.5 96.301 50 96.301 75.5 75.5 96.301 50 96.301Z" fill="#1f1f1f"/>
<path transform="matrix(.6699998,0,0,.6699998,490.40907,42.362794)" d="M66.301 33.398C63.6994 33.398 61.5002 33.898 59.6018 34.898 57.1018 33.2964 53.9026 32.4996 50.0002 32.4996 46.1994 32.4996 43.0002 33.30038 40.3986 34.898 38.5002 33.898 36.1994 33.398 33.6994 33.398 25.5002 33.398 20.8984 38.0972 20.8984 46.199 20.8984 50.699 22.6992 55.199 24.0976 58.199 26.2968 62.5974 28.1992 65.699 28.2968 65.8006L28.99602 66.9022 30.29682 66.60142C35.89842 65.20302 42.59782 64.49982 49.59782 64.49982 56.79702 64.49982 63.89882 65.3006 69.59782 66.69902L70.89862 66.9998 71.59784 65.8982C71.6994 65.79664 73.39864 62.9998 75.89864 58.0974 78.00024 53.7966 79.09784 49.699 79.09784 46.0974 79.101749 38.1013 74.39864 33.3984 66.30084 33.3984ZM59.301 61.398C56.9026 61.19878 54.301 60.99956 51.801 60.99956L50.6018 46.19856C50.6018 45.89778 50.40258 45.69856 50.1018 45.69856 49.80102 45.69856 49.50024 45.89778 49.50024 46.19856L48.30104 60.99956C45.69944 60.99956 43.19944 61.19878 40.80104 61.398 39.80104 59.1988 37.69944 53.9996 37.69944 48.597 37.69944 43.9954 39.00024 40.6986 41.50024 38.6986 41.6018 38.59704 41.69946 38.59704 41.80102 38.49938 43.80102 36.99938 46.60182 36.30018 50.00022 36.30018 53.39862 36.30018 56.19942 36.9994 58.19942 38.49938 58.30098 38.60094 58.39864 38.6986 58.59786 38.80016 61.09786 40.80016 62.39866 44.10096 62.39866 48.69856 62.301004 53.99936 60.19946 59.19856 59.30096 61.39756ZM27.399 56.6011C25.5006 52.8003 24.5982 49.2027 24.5982 46.2031 24.5982 40.2031 27.6998 37.1015 33.6998 37.1015 35.0006 37.1015 36.1998 37.30072 37.3014 37.6015 35.1022 40.3007 33.903 43.9999 33.903 48.4995 33.903 53.8003 35.6022 58.8005 36.8014 61.6985 34.6998 61.99928 32.6022 62.30006 30.6998 62.8001 30.00058 61.4993 28.6998 59.3001 27.399 56.6009ZM72.602 56.6011C71.102 59.6011 69.9028 61.7027 69.2036 62.9019 67.3052 62.50346 65.3052 62.10112 63.102 61.8003 64.3012 58.9995 66.102 53.9019 66.102 48.4993 66.102 43.8977 64.9028 40.3001 62.7036 37.6013 63.8052 37.30052 65.0044 37.1013 66.3052 37.1013 72.3052 37.1013 75.4068 40.2029 75.4068 46.2029 75.39899 49.3006 74.50055 52.8006 72.6021 56.6009Z" fill="#1f1f1f"/>
<path transform="matrix(.6699998,0,0,.6699998,490.40907,42.362794)" d="M68 71.398C62.5 70.1988 56.199 69.5972 49.602 69.5972 43.4028 69.5972 37.301 70.19876 32 71.1988 31 71.39802 30.3008 72.398 30.5 73.398 30.6992 74.398 31.6992 75.0972 32.6992 74.898 37.8008 73.898 43.5972 73.398 49.5972 73.398 55.898 73.398 61.9952 73.99956 67.1992 75.0972H67.59764C68.49608 75.0972 69.19924 74.49564 69.39844 73.5972 69.60156 72.60111 69 71.6011 68.00004 71.398Z" fill="#1f1f1f"/>
<path transform="matrix(.6699998,0,0,.6699998,490.40907,42.362794)" d="M46 27.102H47.8008V28.9028C47.8008 29.9028 48.60158 30.8012 49.6992 30.8012 50.8008 30.8012 51.5976 30.00042 51.5976 28.9028V27.102H53.3984C54.3984 27.102 55.2968 26.30122 55.2968 25.2036 55.2968 24.102 54.49602 23.3052 53.3984 23.3052H51.5976V21.5044C51.5976 20.5044 50.79682 19.606 49.6992 19.606 48.5976 19.606 47.8008 20.40678 47.8008 21.5044V23.3052L46 23.301293C45 23.301293 44.1016 24.102074 44.1016 25.199694 44.1016 26.301293 45.00004 27.101994 46 27.101994Z" fill="#1f1f1f"/>
</g>
<path transform="matrix(1,0,0,1,490.40907,24.802506)" stroke-width="0" stroke-linecap="butt" stroke-miterlimit="10" stroke-linejoin="miter" fill="none" stroke="#000000" stroke-opacity="0" d="M0 0H198.72374V17.560294H0V0Z"/>
<text xml:space="preserve" transform="matrix(1 0 -0 1 490.40907 877.8014)" font-size="14" font-family="ProximaNova" font-weight="bold"><tspan y="-839.73367" x="0 3.584 7.168 10.752001 14.336 24.57 36.54 45.542">    HMRC</tspan></text>
<path transform="matrix(1,0,0,1,516.6201,540.9828)" stroke-width="3" stroke-linecap="butt" stroke-miterlimit="10" stroke-linejoin="miter" fill="none" stroke="#1f1f1f" d="M8.030673 41.570325 7.698912 1.5"/>
<path transform="matrix(1,0,0,1,516.6201,540.9828)" d="M15.999452 37.766218" fill="#1f1f1f"/>
<path transform="matrix(1,0,0,1,516.6201,540.9828)" d="M8.800147 50.61072C8.497487 51.150709 7.722554 51.157125 7.410995 50.622228L.693826 39.089895C.384681 38.55911 .764254 37.892358 1.378493 37.88727L14.620955 37.777635C15.235192 37.77255 15.625767 38.432924 15.325437 38.968755L8.800147 50.61072Z" fill="#1f1f1f"/>
<path transform="matrix(1,0,0,1,516.6201,578.749)" stroke-width="0" stroke-linecap="butt" stroke-miterlimit="10" stroke-linejoin="miter" fill="none" stroke="#000000" stroke-opacity="0" d="M0 0H16.11536V14.132007H0V0Z"/>
<path transform="matrix(1,0,0,1,516.8276,701.98696)" stroke-width="3" stroke-linecap="butt" stroke-miterlimit="10" stroke-linejoin="miter" fill="none" stroke="#1f1f1f" d="M8.030673 41.570325 7.698912 1.5"/>
<path transform="matrix(1,0,0,1,516.8276,701.98696)" d="M15.999452 37.766218" fill="#1f1f1f"/>
<path transform="matrix(1,0,0,1,516.8276,701.98696)" d="M8.800147 50.61072C8.497487 51.150709 7.722554 51.157125 7.410995 50.622228L.693826 39.089895C.384681 38.55911 .764254 37.892358 1.378493 37.88727L14.620955 37.777635C15.235192 37.77255 15.625767 38.432924 15.325437 38.968755L8.800147 50.61072Z" fill="#1f1f1f"/>
<path transform="matrix(1,0,0,1,516.8276,739.7532)" stroke-width="0" stroke-linecap="butt" stroke-miterlimit="10" stroke-linejoin="miter" fill="none" stroke="#000000" stroke-opacity="0" d="M0 0H16.11536V14.132007H0V0Z"/>
<path transform="matrix(1,0,0,1,573.40176,122.36279)" d="M134.91274-.000003H2.087291C.934508-.000003 .000008 .932745 .000008 2.083336V57.916677C.000008 59.06725 .934508 59.999998 2.087291 59.999998H134.91274C136.06549 59.999998 136.99999 59.06725 136.99999 57.916677V2.083336C136.99999 .932745 136.06549-.000003 134.91274-.000003Z" fill="#ffffff"/>
<path transform="matrix(1,0,0,1,573.40176,122.36279)" stroke-width="3" stroke-linecap="butt" stroke-miterlimit="10" stroke-linejoin="miter" fill="none" stroke="#1f1f1f" d="M134.91274-.000003H2.087291C.934508-.000003 .000008 .932745 .000008 2.083336V57.916677C.000008 59.06725 .934508 59.999998 2.087291 59.999998H134.91274C136.06549 59.999998 136.99999 59.06725 136.99999 57.916677V2.083336C136.99999 .932745 136.06549-.000003 134.91274-.000003Z"/>
<g clip-path="url(#clip_26)">
<path transform="matrix(1,0,0,1,575.2939,123.86279)" stroke-width="0" stroke-linecap="butt" stroke-miterlimit="10" stroke-linejoin="miter" fill="none" stroke="#000000" stroke-opacity="0" d="M0 0H133.60784V57H0V0Z"/>
<text xml:space="preserve" transform="matrix(1 0 -0 1 575.7939 982.7842)" font-size="12" font-family="ProximaNova"><tspan y="-841.62869" x="19.247277 26.387417 32.71142 35.41142 38.11142 45.01142 51.335424 54.863424 61.619424 67.199428 70.295429 73.823429 80.447429 86.77142 90.29942 93.395427 96.92342 103.547428 110.30342">Validates that the </tspan></text>
<text xml:space="preserve" transform="matrix(1 0 -0 1 575.7939 982.7842)" font-size="12" font-family="ProximaNova"><tspan y="-826.777" x="18.424035 21.820034 25.780034 32.644037 42.340036 50.740037 57.064039 60.592039 67.34804 70.44404 73.144039 78.72404 81.82004 84.520038 91.132038 94.228038 97.756038 104.380039 111.13603">fromDate is in the </tspan></text>
<text xml:space="preserve" transform="matrix(1 0 -0 1 575.7939 982.7842)" font-size="12" font-family="ProximaNova"><tspan y="-811.9253" x="29.419152 35.359155 42.223154 46.18315 50.14315 56.89915 62.83915 66.36715 69.46315 72.85915 79.72315 83.68315 93.37915 99.70315">correct format</tspan></text>
</g>
<path transform="matrix(1,0,0,1,370.90907,144.55814)" stroke-width="3" stroke-linecap="butt" stroke-miterlimit="10" stroke-linejoin="miter" fill="none" stroke="#1f1f1f" d="M26.074454 10.993986 1.5 19.804667"/>
<path transform="matrix(1,0,0,1,370.90907,144.55814)" d="M19.855818 4.724919" fill="#1f1f1f"/>
<path transform="matrix(1,0,0,1,370.90907,144.55814)" d="M34.355714 7.287012C34.96529 7.394723 35.226835 8.124215 34.82456 8.594705L26.151585 18.7384C25.7524 19.205254 24.997786 19.066723 24.790476 18.488503L20.32107 6.02258C20.113762 5.444362 20.608445 4.857906 21.213334 4.964787L34.355714 7.287012Z" fill="#1f1f1f"/>
<path transform="matrix(1,0,0,1,390.76487,144.55814)" stroke-width="0" stroke-linecap="butt" stroke-miterlimit="10" stroke-linejoin="miter" fill="none" stroke="#000000" stroke-opacity="0" d="M0 0H18.578515V19.786162H0V0Z"/>
<path transform="matrix(1,0,0,1,472.87904,180.8628)" stroke-width="3" stroke-linecap="butt" stroke-miterlimit="10" stroke-linejoin="miter" fill="none" stroke="#1f1f1f" d="M44.24655 33.048398 1.5 1.5"/>
<path transform="matrix(1,0,0,1,472.87904,180.8628)" d="M45.98953 24.391917" fill="#1f1f1f"/>
<path transform="matrix(1,0,0,1,472.87904,180.8628)" d="M51.93778 37.861497C52.187845 38.427759 51.727659 39.05129 51.112848 38.979246L37.85757 37.425935C37.2475 37.354429 36.94225 36.650545 37.307008 36.15631L45.17092 25.50109C45.53568 25.00686 46.298276 25.091065 46.546419 25.65297L51.93778 37.861497Z" fill="#1f1f1f"/>
<path transform="matrix(1,0,0,1,509.36744,205.2547)" stroke-width="0" stroke-linecap="butt" stroke-miterlimit="10" stroke-linejoin="miter" fill="none" stroke="#000000" stroke-opacity="0" d="M0 0H20.765492V21.187067H0V0Z"/>
<path transform="matrix(1,0,0,1,521.53659,180.8628)" stroke-width="3" stroke-linecap="butt" stroke-miterlimit="10" stroke-linejoin="miter" fill="none" stroke="#1f1f1f" d="M12.200313 35.8032 120.36247 1.5"/>
<path transform="matrix(1,0,0,1,521.53659,180.8628)" d="M18.18187 42.298864" fill="#1f1f1f"/>
<path transform="matrix(1,0,0,1,521.53659,180.8628)" d="M3.787114 39.200109C3.181957 39.069837 2.947681 38.331136 3.367149 37.875909L12.410811 28.061264C12.827056 27.609555 13.576006 27.77601 13.761701 28.36153L17.765126 40.984819C17.95082 41.570337 17.434702 42.13802 16.8342 42.008749L3.787114 39.200109Z" fill="#1f1f1f"/>
<path transform="matrix(1,0,0,1,521.53659,207.91028)" stroke-width="0" stroke-linecap="butt" stroke-miterlimit="10" stroke-linejoin="miter" fill="none" stroke="#000000" stroke-opacity="0" d="M0 0H18.18188V19.483668H0V0Z"/>
<path transform="matrix(1,0,0,1,516.3163,416.9828)" stroke-width="3" stroke-linecap="butt" stroke-miterlimit="10" stroke-linejoin="miter" fill="none" stroke="#1f1f1f" d="M8.035878 52.050058 8.212803 1.5"/>
<path transform="matrix(1,0,0,1,516.3163,416.9828)" d="M16.048913 48.34008" fill="#1f1f1f"/>
<path transform="matrix(1,0,0,1,516.3163,416.9828)" d="M8.698811 61.098894C8.389812 61.635278 7.614857 61.632566 7.30962 61.094034L.728756 49.483377C.425885 48.94899 .813285 48.286756 1.427541 48.288908L14.670376 48.33526C15.28463 48.337408 15.667399 49.002336 15.360779 49.53459L8.698811 61.098894Z" fill="#1f1f1f"/>
<path transform="matrix(1,0,0,1,516.3163,465.26689)" stroke-width="0" stroke-linecap="butt" stroke-miterlimit="10" stroke-linejoin="miter" fill="none" stroke="#000000" stroke-opacity="0" d="M0 0H16.048922V14.055914H0V0Z"/>
<path transform="matrix(1,0,0,1,521.6853,540.9828)" stroke-width="3" stroke-linecap="butt" stroke-miterlimit="10" stroke-linejoin="miter" fill="none" stroke="#1f1f1f" d="M12.107108 48.34449 170.79376 1.5"/>
<path transform="matrix(1,0,0,1,521.6853,540.9828)" d="M17.957144 54.958848" fill="#1f1f1f"/>
<path transform="matrix(1,0,0,1,521.6853,540.9828)" d="M3.627453 51.571928C3.025031 51.429544 2.805622 50.68629 3.234139 50.23957L12.472884 40.608339C12.898108 40.16507 13.643567 40.346517 13.817478 40.935644L17.566847 53.636709C17.740757 54.225835 17.213353 54.783048 16.615565 54.641759L3.627453 51.571928Z" fill="#1f1f1f"/>
<path transform="matrix(1,0,0,1,521.6853,580.5963)" stroke-width="0" stroke-linecap="butt" stroke-miterlimit="10" stroke-linejoin="miter" fill="none" stroke="#000000" stroke-opacity="0" d="M0 0H17.957154V19.309058H0V0Z"/>
<path transform="matrix(1,0,0,1,541.379,150.8628)" stroke-width="3" stroke-linecap="butt" stroke-miterlimit="10" stroke-linejoin="miter" fill="none" stroke="#1f1f1f" d="M32.02 1.5H1.5"/>
<path transform="matrix(1,0,0,1,590.90908,508.9828)" stroke-width="3" stroke-linecap="butt" stroke-miterlimit="10" stroke-linejoin="miter" fill="none" stroke="#1f1f1f" d="M35.29 1.5H1.5"/>
<g clip-path="url(#clip_27)">
</g>
<g clip-path="url(#clip_28)">
</g>
<g clip-path="url(#clip_29)">
</g>
<g clip-path="url(#clip_30)">
</g>
<g clip-path="url(#clip_31)">
</g>
<g clip-path="url(#clip_32)">
</g>
<g clip-path="url(#clip_33)">
</g>
<g clip-path="url(#clip_34)">
</g>
<g clip-path="url(#clip_35)">
</g>
<g clip-path="url(#clip_36)">
</g>
<g clip-path="url(#clip_37)">
</g>
<g clip-path="url(#clip_38)">
</g>
</svg>
